<?xml version="1.0" encoding="UTF-8"?>
<svg version="1.1" xmlns="http://www.w3.org/2000/svg" width="1080" height="1080">
<path d="M0 0 C0.87408005 -0.00335861 1.7481601 -0.00671722 2.64872742 -0.01017761 C5.53992133 -0.01967536 8.43105707 -0.02163128 11.32226562 -0.02270508 C13.34989444 -0.02592251 15.37752303 -0.02928694 17.40515137 -0.03279114 C21.66545141 -0.03878234 25.92573119 -0.04063145 30.18603516 -0.04003906 C35.58599022 -0.03993836 40.98581104 -0.05349401 46.38573456 -0.07081127 C50.5831153 -0.08206684 54.78046522 -0.08395404 58.9778595 -0.08342934 C60.9645076 -0.08459289 62.95115695 -0.08892066 64.93778992 -0.0967617 C82.25969864 -0.15863688 99.3556126 1.01090645 116.47851562 3.70776367 C117.32929687 3.83344727 118.18007813 3.95913086 119.05664062 4.08862305 C125.09619834 5.01294638 125.09619834 5.01294638 126.22851562 6.14526367 C127.93531657 6.47854544 129.65283116 6.75729612 131.37304688 7.01245117 C132.44361328 7.17616211 133.51417969 7.33987305 134.6171875 7.50854492 C136.85656797 7.84323841 139.0961442 8.17662535 141.3359375 8.50854492 C148.76668882 9.64766188 155.96351163 11.22336093 163.22851562 13.14526367 C164.57401346 13.47945959 165.92026017 13.81067045 167.26757812 14.13745117 C183.87056546 18.22489686 200.15835259 22.97155692 216.35351562 28.45776367 C218.00571458 29.01353286 219.6580579 29.56887304 221.31054688 30.1237793 C225.28487389 31.45936708 229.25724019 32.80063079 233.22851562 34.14526367 C233.22851562 34.80526367 233.22851562 35.46526367 233.22851562 36.14526367 C234.01226563 36.22776367 234.79601562 36.31026367 235.60351562 36.39526367 C240.42429035 37.39266534 244.70341847 39.23793842 249.22851562 41.14526367 C250.17082031 41.5294043 251.113125 41.91354492 252.08398438 42.30932617 C270.00679623 49.64891888 287.12522362 58.4481589 304.00585938 67.91479492 C305.57270965 68.78220764 307.14926067 69.63220996 308.73242188 70.46948242 C315.94342543 74.30065607 322.75401656 78.61102105 329.58105469 83.07543945 C331.90477041 84.58440837 334.25521507 86.04993134 336.60351562 87.52026367 C343.95103937 92.18501049 351.10188967 97.15136211 358.22851562 102.14526367 C359.04449219 102.70729492 359.86046875 103.26932617 360.70117188 103.84838867 C361.20519531 104.27635742 361.70921875 104.70432617 362.22851562 105.14526367 C362.22851562 105.80526367 362.22851562 106.46526367 362.22851562 107.14526367 C362.8149585 107.25555908 363.40140137 107.36585449 364.00561523 107.47949219 C366.47011951 108.21762543 367.81783464 109.16866947 369.79492188 110.79760742 C370.44525391 111.32676758 371.09558594 111.85592773 371.765625 112.40112305 C372.43400391 112.95606445 373.10238281 113.51100586 373.79101562 114.08276367 C375.12485692 115.17618104 376.4594637 116.26866544 377.79492188 117.36010742 C378.38217041 117.84600342 378.96941895 118.33189941 379.57446289 118.83251953 C381.0660155 120.01629494 382.6441089 121.08899252 384.22851562 122.14526367 C384.22851562 122.80526367 384.22851562 123.46526367 384.22851562 124.14526367 C385.01226563 124.39276367 385.79601562 124.64026367 386.60351562 124.89526367 C389.66793019 126.35450871 389.84577323 127.19541323 391.22851562 130.14526367 C391.79957031 130.41983398 392.370625 130.6944043 392.95898438 130.97729492 C395.93166429 132.50712503 398.03563098 134.55390128 400.47851562 136.83276367 C401.37054687 137.66163086 402.26257813 138.49049805 403.18164062 139.34448242 C403.90287109 140.01483521 403.90287109 140.01483521 404.63867188 140.69873047 C406.39622341 142.29785407 408.19316273 143.84524539 409.99414062 145.39526367 C414.76648489 149.55549306 419.25133925 153.98423321 423.72851562 158.45776367 C424.5509375 159.26793945 425.37335937 160.07811523 426.22070312 160.9128418 C426.99671875 161.68692383 427.77273438 162.46100586 428.57226562 163.25854492 C429.27544922 163.95761963 429.97863281 164.65669434 430.703125 165.37695312 C432.22851562 167.14526367 432.22851562 167.14526367 432.22851562 169.14526367 C432.88851562 169.14526367 433.54851563 169.14526367 434.22851562 169.14526367 C435.63867188 170.50854492 435.63867188 170.50854492 437.29101562 172.45776367 C437.9071875 173.18092773 438.52335938 173.9040918 439.15820312 174.64916992 C442.17391562 178.28509499 445.15468868 181.948676 448.11523438 185.62963867 C450.05418267 187.93773979 452.09485847 190.01999024 454.22851562 192.14526367 C460.07000444 198.95275744 465.52774894 206.0705067 470.96679688 213.19995117 C472.3795109 215.0396513 473.80803954 216.86743963 475.25976562 218.67651367 C477.37639758 221.33070295 479.40699469 224.03377361 481.41601562 226.77026367 C482.45822266 228.18178711 482.45822266 228.18178711 483.52148438 229.62182617 C485.22851562 232.14526367 485.22851562 232.14526367 486.22851562 235.14526367 C486.82148437 235.72405273 487.41445313 236.3028418 488.02539062 236.89916992 C490.7357711 239.66241243 492.55725665 242.7560057 494.47851562 246.08276367 C495.27207389 247.43214132 496.06635815 248.78109224 496.86132812 250.12963867 C497.25739258 250.80446289 497.65345703 251.47928711 498.06152344 252.17456055 C499.78561808 255.08604422 501.56890246 257.95793936 503.35351562 260.83276367 C509.02556587 270.04704293 514.39684458 279.28821626 519.16894531 288.99853516 C522.07720478 294.90584922 525.19070084 300.68410379 528.36914062 306.44995117 C530.24990844 310.03099657 531.71419275 313.73920835 533.18408203 317.50415039 C535.309875 322.8797531 537.65948589 328.16340051 539.9609375 333.46557617 C544.99912849 345.13838664 549.07308574 357.13620579 553.22851562 369.14526367 C553.50663086 369.94416016 553.78474609 370.74305664 554.07128906 371.56616211 C557.68832256 381.98760287 560.7294478 392.40292413 563.22851562 403.14526367 C563.55864552 404.53863496 563.88938431 405.93186211 564.22070312 407.32495117 C564.89720583 410.17459176 565.56364156 413.02635831 566.22460938 415.87963867 C566.87382165 418.66941107 567.55390723 421.44842925 568.26367188 424.22338867 C570.54723728 433.28311577 572.0760889 442.29170763 573.18969727 451.57177734 C573.29789795 452.45454346 573.40609863 453.33730957 573.51757812 454.24682617 C573.65220459 455.41205811 573.65220459 455.41205811 573.78955078 456.60083008 C574.19345017 459.26248377 574.19345017 459.26248377 575.17285156 462.22216797 C581.63583406 484.29956562 579.69978482 509.82693162 579.61962891 532.57958984 C579.60257416 537.46678909 579.61266688 542.35349654 579.62997055 547.24067879 C579.69721883 569.73408012 579.01926319 591.81062408 576.22851562 614.14526367 C576.08678169 615.37055786 576.08678169 615.37055786 575.94218445 616.62060547 C575.58748555 619.65049108 575.14516536 622.43332776 574.29492188 625.37182617 C572.79371002 630.68380659 572.01994012 636.07203059 571.16601562 641.52026367 C570.82465529 643.69532544 570.47979978 645.86984258 570.13085938 648.04370117 C569.98124756 648.99937988 569.83163574 649.95505859 569.67749023 650.93969727 C569.22851562 653.14526367 569.22851562 653.14526367 568.22851562 654.14526367 C567.897767 655.58292018 567.6179536 657.03238782 567.36132812 658.48510742 C567.19761719 659.38422852 567.03390625 660.28334961 566.86523438 661.2097168 C566.5303978 663.08965801 566.19700651 664.96985735 565.86523438 666.8503418 C564.8941216 672.16887805 563.68644778 677.28597504 562.06591797 682.44335938 C561.11198101 685.52126616 560.24978764 688.61934313 559.38476562 691.72338867 C557.27368068 699.13626679 554.89666182 706.44504645 552.44677734 713.7512207 C551.72497566 715.90583061 551.00967877 718.06252663 550.29492188 720.21948242 C547.82933792 727.62371475 545.24437484 734.94381024 542.22851562 742.14526367 C541.80828125 743.18295898 541.38804688 744.2206543 540.95507812 745.28979492 C538.17521729 752.02257844 535.21849379 758.65473006 532.11914062 765.24633789 C531.13900551 767.33611063 530.16838518 769.43019338 529.19726562 771.52416992 C525.27940524 779.92921984 521.2210602 788.24355912 516.91601562 796.45776367 C516.50770508 797.23974121 516.09939453 798.02171875 515.67871094 798.82739258 C513.40783707 803.11443672 510.96109063 807.13867766 508.22851562 811.14526367 C507.77476562 812.05276367 507.32101562 812.96026367 506.85351562 813.89526367 C505.38139893 816.83949706 503.82064651 819.67574084 502.16601562 822.52026367 C501.65941406 823.39424805 501.1528125 824.26823242 500.63085938 825.16870117 C500.16808594 825.8209668 499.7053125 826.47323242 499.22851562 827.14526367 C498.56851563 827.14526367 497.90851562 827.14526367 497.22851562 827.14526367 C496.98101563 827.9934668 496.73351562 828.84166992 496.47851562 829.71557617 C495.12110022 833.43998469 493.31701797 836.6756331 491.22851562 840.02026367 C490.87273438 840.61323242 490.51695312 841.20620117 490.15039062 841.81713867 C489.23581566 843.2982041 488.23828026 844.72738584 487.22851562 846.14526367 C486.56851563 846.14526367 485.90851562 846.14526367 485.22851562 846.14526367 C484.97070312 846.86713867 484.71289062 847.58901367 484.44726562 848.33276367 C483.16509495 851.29161907 481.65143914 853.5603501 479.72851562 856.14526367 C479.01566406 857.10432617 478.3028125 858.06338867 477.56835938 859.05151367 C476.79621094 860.07245117 476.0240625 861.09338867 475.22851562 862.14526367 C474.83035645 862.67249023 474.43219727 863.1997168 474.02197266 863.74291992 C468.89762167 870.51285437 463.6450037 877.16146999 458.23632812 883.70776367 C456.81928115 885.42806973 455.4424257 887.18186577 454.09570312 888.95776367 C453.17144531 890.04057617 453.17144531 890.04057617 452.22851562 891.14526367 C451.56851563 891.14526367 450.90851562 891.14526367 450.22851562 891.14526367 C449.98101563 891.92901367 449.73351562 892.71276367 449.47851562 893.52026367 C448.00711569 896.61020354 447.15533108 896.68185595 444.22851562 898.14526367 C443.79406128 899.2822168 443.79406128 899.2822168 443.35083008 900.44213867 C442.08114777 903.50020317 440.62974839 905.08904963 438.27148438 907.39526367 C437.09682617 908.55541992 437.09682617 908.55541992 435.8984375 909.73901367 C435.07923828 910.53307617 434.26003906 911.32713867 433.41601562 912.14526367 C432.60841797 912.93932617 431.80082031 913.73338867 430.96875 914.55151367 C429.40149438 916.09181404 427.83158211 917.62941679 426.25878906 919.1640625 C423.1742144 922.17408215 420.13117691 925.22160541 417.11889648 928.30395508 C414.61972911 930.86113749 412.1118244 933.40954998 409.60351562 935.95776367 C408.31574219 937.28324219 408.31574219 937.28324219 407.00195312 938.63549805 C406.17695312 939.47016602 405.35195313 940.30483398 404.50195312 941.16479492 C403.75349121 941.92896729 403.0050293 942.69313965 402.23388672 943.48046875 C400.22851562 945.14526367 400.22851562 945.14526367 397.22851562 945.14526367 C397.02355469 945.69569336 396.81859375 946.24612305 396.60742188 946.81323242 C394.70400728 950.03232169 392.02556322 952.12384437 389.16601562 954.45776367 C388.57820312 954.94559326 387.99039063 955.43342285 387.38476562 955.93603516 C382.7415785 959.77212561 378.01713724 963.49265773 373.22851562 967.14526367 C372.20886719 967.93803711 371.18921875 968.73081055 370.13867188 969.54760742 C364.35871116 974.03859177 358.53524557 978.40631104 352.50195312 982.55541992 C350.30175198 984.09404856 348.16988265 985.69736965 346.04101562 987.33276367 C342.58277194 989.95601894 339.02169161 992.03794368 335.22851562 994.14526367 C334.15601563 994.88776367 333.08351563 995.63026367 331.97851562 996.39526367 C329.22851562 998.14526367 329.22851562 998.14526367 326.22851562 998.14526367 C325.89851562 999.13526367 325.56851563 1000.12526367 325.22851562 1001.14526367 C323.21679687 1002.46948242 323.21679687 1002.46948242 320.54101562 1003.83276367 C317.14964088 1005.59734529 313.7877518 1007.37956073 310.49023438 1009.31323242 C309.86528076 1009.67908447 309.24032715 1010.04493652 308.59643555 1010.421875 C307.36620108 1011.14528696 306.13842105 1011.87289181 304.91333008 1012.60498047 C302.1175087 1014.23617459 300.52627432 1015.14526367 297.22851562 1015.14526367 C297.22851562 1015.80526367 297.22851562 1016.46526367 297.22851562 1017.14526367 C296.2359375 1017.64155273 295.24335937 1018.1378418 294.22070312 1018.64916992 C293.57029053 1018.9744165 292.91987793 1019.29966309 292.24975586 1019.63476562 C290.80668914 1020.35621691 289.36349029 1021.07740397 287.92016602 1021.79833984 C284.37533715 1023.56939402 280.8321449 1025.34343577 277.29492188 1027.12963867 C276.68213379 1027.43828857 276.0693457 1027.74693848 275.43798828 1028.06494141 C273.76202167 1028.90939027 272.08703528 1029.75578375 270.41210938 1030.60229492 C264.20843851 1033.60898203 257.80368515 1036.17005201 251.43554688 1038.80541992 C249.25974922 1039.71443161 247.09059708 1040.63948391 244.92773438 1041.57885742 C243.34412109 1042.26141602 243.34412109 1042.26141602 241.72851562 1042.95776367 C240.76945313 1043.37670898 239.81039062 1043.7956543 238.82226562 1044.22729492 C236.22851563 1045.14526367 236.22851563 1045.14526367 232.22851562 1045.14526367 C232.22851562 1045.80526367 232.22851562 1046.46526367 232.22851562 1047.14526367 C230.94267578 1047.52618164 230.94267578 1047.52618164 229.63085938 1047.91479492 C227.91576172 1048.43106445 227.91576172 1048.43106445 226.16601562 1048.95776367 C225.04066406 1049.29420898 223.9153125 1049.6306543 222.75585938 1049.97729492 C219.14118999 1051.17417881 215.72557478 1052.64265132 212.22851562 1054.14526367 C203.25078937 1057.26497465 194.18134383 1059.76964596 184.90087891 1061.80126953 C182.11519126 1062.41870885 179.46298139 1063.04851474 176.82104492 1064.13867188 C174.22184912 1065.14785205 171.84910815 1065.68629895 169.10351562 1066.14526367 C168.14960937 1066.31026367 167.19570313 1066.47526367 166.21289062 1066.64526367 C164.22330729 1066.97859701 162.23372396 1067.31193034 160.24414062 1067.64526367 C159.29023437 1067.81026367 158.33632813 1067.97526367 157.35351562 1068.14526367 C156.48984375 1068.28963867 155.62617187 1068.43401367 154.73632812 1068.58276367 C152.19597938 1069.0790492 152.19597938 1069.0790492 149.78808594 1070.14526367 C146.89093871 1071.27715179 144.23026921 1071.72084484 141.15039062 1072.14526367 C139.40822266 1072.39276367 139.40822266 1072.39276367 137.63085938 1072.64526367 C135.82294922 1072.89276367 135.82294922 1072.89276367 133.97851562 1073.14526367 C131.59786292 1073.47540836 129.21764152 1073.80868012 126.83789062 1074.14526367 C125.78569336 1074.28963867 124.73349609 1074.43401367 123.64941406 1074.58276367 C121.11628681 1074.99928702 118.69467913 1075.49117956 116.20332336 1076.08041382 C98.5239994 1080.03056128 80.55159072 1080.60166719 62.51367188 1080.54370117 C60.23457242 1080.54573103 57.95547361 1080.54864995 55.67637634 1080.55239868 C50.9478423 1080.55677297 46.21948051 1080.55054727 41.4909668 1080.53637695 C35.4778921 1080.51921892 29.4652174 1080.52919965 23.45215702 1080.54709435 C18.76341308 1080.55800706 14.07476189 1080.55445288 9.38601494 1080.54671097 C7.16998686 1080.54473318 4.9539499 1080.54708131 2.73793221 1080.55414963 C-12.24720366 1080.59151138 -26.46086673 1080.06834034 -40.77148438 1075.14526367 C-42.43634399 1074.85556875 -44.11107668 1074.61731747 -45.79101562 1074.43432617 C-46.72236328 1074.32604492 -47.65371094 1074.21776367 -48.61328125 1074.10620117 C-50.0837793 1073.93991211 -50.0837793 1073.93991211 -51.58398438 1073.77026367 C-60.1693118 1072.72896054 -68.43873641 1071.24840922 -76.81445312 1069.12182617 C-82.06113034 1067.79028803 -87.37537448 1066.83427846 -92.69726562 1065.85620117 C-95.77148438 1065.14526367 -95.77148438 1065.14526367 -97.4543457 1064.21069336 C-100.80328925 1062.67083564 -104.32685757 1062.10661867 -107.91992188 1061.38745117 C-117.35620796 1059.39049723 -126.31525062 1056.48409005 -135.39648438 1053.27026367 C-136.86493198 1052.76027755 -138.33368237 1052.25116242 -139.80273438 1051.74291992 C-155.35304787 1046.33919732 -170.69183484 1040.7613675 -185.39648438 1033.31713867 C-188.47491397 1031.7981767 -191.59928025 1030.4555219 -194.77148438 1029.14526367 C-194.77148438 1028.48526367 -194.77148438 1027.82526367 -194.77148438 1027.14526367 C-195.45210938 1027.04213867 -196.13273437 1026.93901367 -196.83398438 1026.83276367 C-200.40064426 1025.99801349 -203.43370632 1024.65053613 -206.77148438 1023.14526367 C-206.77148438 1022.48526367 -206.77148438 1021.82526367 -206.77148438 1021.14526367 C-207.47273438 1021.04213867 -208.17398437 1020.93901367 -208.89648438 1020.83276367 C-212.22144423 1020.03766458 -214.74272379 1018.7453636 -217.77148438 1017.14526367 C-219.5615379 1016.2462113 -221.35330278 1015.35056072 -223.14648438 1014.45776367 C-224.68815104 1013.68693034 -226.22981771 1012.91609701 -227.77148438 1012.14526367 C-227.77148438 1011.48526367 -227.77148438 1010.82526367 -227.77148438 1010.14526367 C-228.609375 1009.9003418 -229.44726562 1009.65541992 -230.31054688 1009.40307617 C-234.21575285 1007.98380267 -237.58119709 1006.12668602 -241.14648438 1004.02026367 C-242.10748047 1003.46145508 -242.10748047 1003.46145508 -243.08789062 1002.89135742 C-244.65196914 1001.98092366 -246.21213971 1001.06378176 -247.77148438 1000.14526367 C-247.77148438 999.48526367 -247.77148438 998.82526367 -247.77148438 998.14526367 C-248.65835938 997.89776367 -249.54523438 997.65026367 -250.45898438 997.39526367 C-253.94078923 996.08137505 -255.9257362 994.5051524 -258.77148438 992.14526367 C-260.45972075 991.15780466 -262.14897483 990.17154652 -263.85742188 989.21948242 C-265.99588381 988.01932521 -268.10847958 986.78576215 -270.20898438 985.52026367 C-270.88832031 985.11549805 -271.56765625 984.71073242 -272.26757812 984.29370117 C-272.76386719 983.9147168 -273.26015625 983.53573242 -273.77148438 983.14526367 C-273.77148438 982.48526367 -273.77148438 981.82526367 -273.77148438 981.14526367 C-274.51398438 980.87713867 -275.25648438 980.60901367 -276.02148438 980.33276367 C-278.66210386 979.19249617 -280.62701282 978.05146061 -282.77148438 976.14526367 C-282.77148438 975.48526367 -282.77148438 974.82526367 -282.77148438 974.14526367 C-283.66661743 973.96543945 -283.66661743 973.96543945 -284.57983398 973.78198242 C-288.05461443 972.77248845 -290.57078905 970.39464791 -293.33398438 968.14526367 C-293.94516113 967.65485596 -294.55633789 967.16444824 -295.18603516 966.65917969 C-296.44002795 965.65112855 -297.69165593 964.64012867 -298.94091797 963.6262207 C-300.66265971 962.23330454 -302.39613066 960.85684118 -304.13476562 959.48510742 C-305.12863281 958.69233398 -306.1225 957.89956055 -307.14648438 957.08276367 C-308.04109375 956.36991211 -308.93570313 955.65706055 -309.85742188 954.92260742 C-310.80488281 954.04282227 -310.80488281 954.04282227 -311.77148438 953.14526367 C-311.77148438 952.48526367 -311.77148438 951.82526367 -311.77148438 951.14526367 C-312.31933594 950.90420898 -312.8671875 950.6631543 -313.43164062 950.41479492 C-316.31937946 948.84799172 -318.67532495 946.92364767 -321.20898438 944.83276367 C-322.59923828 943.69387695 -322.59923828 943.69387695 -324.01757812 942.53198242 C-326.74109912 940.17159756 -329.32663687 937.79421822 -331.77148438 935.14526367 C-331.77148438 934.48526367 -331.77148438 933.82526367 -331.77148438 933.14526367 C-332.3196582 932.92161133 -332.86783203 932.69795898 -333.43261719 932.4675293 C-336.47394156 930.74813339 -338.75382059 928.44902368 -341.19335938 925.98901367 C-341.69820862 925.48607788 -342.20305786 924.98314209 -342.72320557 924.46496582 C-343.78456434 923.40496381 -344.84341856 922.34244879 -345.89990234 921.27758789 C-347.52287562 919.64386321 -349.15629506 918.02113074 -350.79101562 916.39916992 C-351.82160583 915.36725891 -352.85157589 914.33472809 -353.88085938 913.30151367 C-354.61668243 912.57176331 -354.61668243 912.57176331 -355.36737061 911.82727051 C-358.77148438 908.37520716 -358.77148438 908.37520716 -358.77148438 906.14526367 C-359.43148437 906.14526367 -360.09148437 906.14526367 -360.77148438 906.14526367 C-360.77148438 905.48526367 -360.77148438 904.82526367 -360.77148438 904.14526367 C-361.43148437 904.14526367 -362.09148437 904.14526367 -362.77148438 904.14526367 C-364.71679687 902.02807617 -364.71679687 902.02807617 -366.89648438 899.27026367 C-367.98316406 897.91288086 -367.98316406 897.91288086 -369.09179688 896.52807617 C-370.77148438 894.14526367 -370.77148438 894.14526367 -370.77148438 892.14526367 C-371.39023437 891.91838867 -372.00898438 891.69151367 -372.64648438 891.45776367 C-375.40069417 889.75663409 -375.59298899 888.09150214 -376.77148438 885.14526367 C-378.08795556 884.44588835 -379.42170589 883.77797234 -380.77148438 883.14526367 C-381.4729959 881.82992957 -382.13674363 880.49408776 -382.77148438 879.14526367 C-383.64933594 878.2712793 -383.64933594 878.2712793 -384.54492188 877.37963867 C-391.79016466 870.10897398 -411.77148438 848.52906769 -411.77148438 838.14526367 C-412.43148437 838.14526367 -413.09148437 838.14526367 -413.77148438 838.14526367 C-415.06835938 836.30932617 -415.06835938 836.30932617 -416.52148438 833.77026367 C-417.05128906 832.85631836 -417.58109375 831.94237305 -418.12695312 831.00073242 C-418.66964844 830.05842773 -419.21234375 829.11612305 -419.77148438 828.14526367 C-420.78921124 826.45588835 -421.80994817 824.76832197 -422.83398438 823.08276367 C-424.66827834 820.03034685 -426.44089477 816.95872723 -428.14648438 813.83276367 C-430.12587452 810.20808427 -432.29619109 806.74893361 -434.52148438 803.27026367 C-439.3036573 795.57720288 -443.01716307 787.4427373 -446.80224609 779.22583008 C-447.99164053 776.67267659 -449.24432555 774.15554137 -450.52148438 771.64526367 C-458.49260633 755.89542615 -464.90484005 739.39604147 -470.95898438 722.83276367 C-471.45821411 721.47332642 -471.45821411 721.47332642 -471.9675293 720.08642578 C-474.11685265 714.16107441 -476.00093928 708.19326846 -477.77148438 702.14526367 C-478.45663534 699.93620041 -479.14379329 697.72775742 -479.83398438 695.52026367 C-481.30488596 690.75097673 -482.59820637 685.99481274 -483.77148438 681.14526367 C-484.27040403 679.39495536 -484.77049687 677.64498123 -485.27148438 675.89526367 C-486.63779373 670.95869872 -487.5182353 666.03699292 -488.24414062 660.96948242 C-488.70604492 658.11093817 -488.70604492 658.11093817 -489.74194336 655.33618164 C-490.72680514 652.2837407 -491.30666386 649.43476288 -491.77148438 646.26635742 C-492.01898438 644.63730469 -492.01898438 644.63730469 -492.27148438 642.9753418 C-492.60538118 640.70979977 -492.93871264 638.44417435 -493.27148438 636.1784668 C-493.51898438 634.55134766 -493.51898438 634.55134766 -493.77148438 632.89135742 C-493.98804688 631.41687134 -493.98804688 631.41687134 -494.20898438 629.91259766 C-494.67958054 627.15274148 -494.67958054 627.15274148 -495.76708984 624.72216797 C-505.28639903 600.29914695 -501.21334453 565.83332212 -501.26412201 539.9341507 C-501.27136535 537.25183997 -501.28594518 534.56965922 -501.30230713 531.88739014 C-501.40193464 513.26617227 -501.00149522 494.84799765 -498.92773438 476.32885742 C-498.84580338 475.58802477 -498.76387238 474.84719212 -498.67945862 474.08390999 C-497.78036452 466.16237743 -496.55894907 458.44524716 -494.4377594 450.74719238 C-493.29774988 446.29524178 -492.77370277 441.76226764 -492.20898438 437.20776367 C-491.54061667 431.84172584 -490.86255297 427.1542873 -488.77148438 422.14526367 C-488.04507879 419.01888949 -487.48024257 415.86343771 -486.89648438 412.70776367 C-485.28678014 404.36472011 -483.29047674 396.26619429 -480.77148438 388.14526367 C-480.42601562 386.99026367 -480.08054687 385.83526367 -479.72460938 384.64526367 C-468.85430263 348.9072689 -468.85430263 348.9072689 -461.33398438 332.70776367 C-460.90214844 331.76932617 -460.4703125 330.83088867 -460.02539062 329.86401367 C-459.61160156 328.96682617 -459.1978125 328.06963867 -458.77148438 327.14526367 C-457.03504002 323.31853348 -455.30402925 319.49726712 -453.76367188 315.58666992 C-449.84855697 305.71674737 -444.80675657 296.47601861 -439.77148438 287.14526367 C-439.21074219 286.09854492 -438.65 285.05182617 -438.07226562 283.97338867 C-436.65746476 281.35309994 -435.22059411 278.74672396 -433.77148438 276.14526367 C-433.20429688 275.12045898 -432.63710938 274.0956543 -432.05273438 273.03979492 C-423.44769012 257.71646816 -414.08996941 242.60086385 -403.64648438 228.45776367 C-401.64636659 225.74676065 -399.69868394 223.03503143 -397.84179688 220.22338867 C-395.60760093 216.90160301 -393.22718015 213.74168142 -390.77148438 210.58276367 C-390.34609375 210.03168945 -389.92070312 209.48061523 -389.48242188 208.9128418 C-387.52910241 206.38730758 -385.55764524 203.87853146 -383.56054688 201.38745117 C-382.37714464 199.9043226 -381.23738364 198.38519725 -380.14648438 196.83276367 C-379.69273437 196.27588867 -379.23898437 195.71901367 -378.77148438 195.14526367 C-378.11148438 195.14526367 -377.45148438 195.14526367 -376.77148438 195.14526367 C-376.40023437 193.96963867 -376.40023437 193.96963867 -376.02148438 192.77026367 C-374.55008444 189.6803238 -373.69829983 189.6086714 -370.77148438 188.14526367 C-370.51753906 187.41952148 -370.26359375 186.6937793 -370.00195312 185.94604492 C-368.40646126 182.31440154 -365.91687029 180.01047626 -363.08398438 177.33276367 C-361.99230969 176.27214497 -360.902459 175.20964558 -359.81445312 174.14526367 C-359.28899902 173.6322168 -358.76354492 173.11916992 -358.22216797 172.59057617 C-354.67589875 169.05743687 -351.46960326 165.21723897 -348.29882812 161.34838867 C-345.75433828 158.28143024 -343.16287678 155.53407734 -340.12695312 152.94604492 C-334.85126697 148.38167367 -329.82435518 143.56652141 -324.77539062 138.75463867 C-323.69837891 137.73370117 -323.69837891 137.73370117 -322.59960938 136.69213867 C-321.95926758 136.08208984 -321.31892578 135.47204102 -320.65917969 134.84350586 C-315.43680927 130.14526367 -315.43680927 130.14526367 -312.77148438 130.14526367 C-312.43117188 129.21713867 -312.43117188 129.21713867 -312.08398438 128.27026367 C-310.3828548 125.51605388 -308.71772284 125.32375906 -305.77148438 124.14526367 C-305.44148437 123.48526367 -305.11148438 122.82526367 -304.77148438 122.14526367 C-303.77148438 120.14526367 -303.77148438 120.14526367 -301.14648438 118.89526367 C-300.36273438 118.64776367 -299.57898438 118.40026367 -298.77148438 118.14526367 C-298.77148438 117.48526367 -298.77148438 116.82526367 -298.77148438 116.14526367 C-297.36893081 115.165166 -295.95890655 114.19406998 -294.51367188 113.27807617 C-291.6354208 111.40656763 -288.97178629 109.26188987 -286.27148438 107.14526367 C-282.20729536 103.95955731 -278.09258017 100.98223145 -273.77148438 98.14526367 C-271.83182558 96.794191 -269.89443299 95.43986067 -267.95898438 94.08276367 C-254.20688624 84.51159506 -240.0947382 75.5049501 -225.33398438 67.57104492 C-223.19553658 66.38120735 -221.17947846 65.1271057 -219.14648438 63.77026367 C-213.71372569 60.29060418 -207.75623357 57.77164141 -201.91210938 55.07104492 C-197.90917611 53.22082034 -193.96565855 51.26940168 -190.04492188 49.25073242 C-187.60835435 48.065941 -185.13106466 46.99865686 -182.63671875 45.94189453 C-180.17156457 44.88904138 -177.72752331 43.78959059 -175.27978516 42.69702148 C-164.18216068 37.76783822 -152.90615815 33.10010891 -141.17773438 29.88354492 C-138.3932933 29.02922777 -135.69276073 27.98771715 -132.97070312 26.95458984 C-129.19297234 25.56436143 -125.36071071 24.35314965 -121.52148438 23.14526367 C-120.27250366 22.7511731 -120.27250366 22.7511731 -118.99829102 22.34912109 C-113.50385087 20.63546904 -107.99585777 19.11486281 -102.39257812 17.79370117 C-99.81152768 17.15517006 -97.30392911 16.39090559 -94.77148438 15.58276367 C-90.0829408 14.12848198 -85.38917283 13.35335084 -80.53320312 12.67260742 C-77.79289846 12.24810712 -77.79289846 12.24810712 -75.45800781 11.17480469 C-72.61691207 10.08602781 -70.03270111 9.58695701 -67.02539062 9.14526367 C-65.94064453 8.98026367 -64.85589844 8.81526367 -63.73828125 8.64526367 C-62.0531543 8.39776367 -62.0531543 8.39776367 -60.33398438 8.14526367 C-58.10539473 7.81681292 -55.87749708 7.48362525 -53.65039062 7.14526367 C-52.66627197 7.00088867 -51.68215332 6.85651367 -50.66821289 6.70776367 C-47.72522847 6.20499178 -47.72522847 6.20499178 -44.8125 5.13378906 C-41.57183469 4.0803647 -38.62453114 3.66115958 -35.23632812 3.32885742 C-34.01494141 3.20446289 -32.79355469 3.08006836 -31.53515625 2.9519043 C-30.27251953 2.83008789 -29.00988281 2.70827148 -27.70898438 2.58276367 C-25.1970636 2.33348909 -22.68533547 2.0822636 -20.17382812 1.82885742 C-19.06515381 1.72114014 -17.95647949 1.61342285 -16.81420898 1.50244141 C-13.90343732 1.22144517 -13.90343732 1.22144517 -11.62953186 0.63201904 C-7.75335145 -0.02813501 -3.91943503 -0.00216971 0 0 Z " fill="#FDFDFD" transform="translate(500.771484375,-0.145263671875)"/>
<path d="M0 0 C27.06 0 54.12 0 82 0 C82 29.37 82 58.74 82 89 C98.83 89 115.66 89 133 89 C133 109.79 133 130.58 133 152 C116.17 152 99.34 152 82 152 C82.09105473 166.79018188 82.09105473 166.79018188 82.20898438 181.58007812 C82.26310312 187.6211508 82.31422022 193.66213477 82.34643555 199.70336914 C82.37263748 204.57945117 82.41315654 209.45523158 82.46318626 214.33112526 C82.47974162 216.18199698 82.49132585 218.03292074 82.49761391 219.88385582 C82.34931583 239.44173912 82.34931583 239.44173912 90 257 C93.82157983 260.58996893 98.00340812 260.48910629 103.015625 260.3671875 C107.12515522 259.86156467 110.68422833 258.55835865 114.4921875 256.97265625 C116.99069118 256.00361043 119.36319123 255.44891906 122 255 C125.62744462 265.57572279 129.13271678 276.13525964 132.00341797 286.94311523 C134.1290073 294.78003298 136.76245939 302.44462366 139.40991211 310.1184082 C139.74514893 311.09898193 140.08038574 312.07955566 140.42578125 313.08984375 C140.88078003 314.40263306 140.88078003 314.40263306 141.3449707 315.74194336 C142 318 142 318 142 321 C114.34604984 334.36760714 80.08687902 341.76165403 49.98535156 331.29980469 C29.92489256 323.89243594 17.15489185 311.09240864 8 292 C1.74038139 277.65324193 -0.17134874 263.55590117 -0.11352539 248.04248047 C-0.11367142 246.99738815 -0.11381744 245.95229584 -0.1139679 244.87553406 C-0.11327688 241.45606334 -0.10552281 238.03664859 -0.09765625 234.6171875 C-0.09578919 232.23251373 -0.09436664 229.84783957 -0.09336853 227.46316528 C-0.08956608 221.212839 -0.07975535 214.96253627 -0.06866455 208.71221924 C-0.05840142 202.3237744 -0.05386044 195.93532572 -0.04882812 189.546875 C-0.0381309 177.03123803 -0.02055267 164.51562467 0 152 C-8.91 152 -17.82 152 -27 152 C-27 210.08 -27 268.16 -27 328 C-53.73 328 -80.46 328 -108 328 C-108 319.42 -108 310.84 -108 302 C-113.35181619 306.6808054 -113.35181619 306.6808054 -118.6953125 311.37109375 C-144.19720712 333.06000413 -174.15907823 337.34003961 -206.68994141 334.7890625 C-230.2991067 332.10423819 -251.01572759 320.05587167 -268 304 C-268.73992187 303.32453125 -269.47984375 302.6490625 -270.2421875 301.953125 C-293.34026156 280.08804422 -305.38965944 248.3656578 -306.3125 216.984375 C-307.19745621 178.71459433 -297.96504567 145.34593122 -271.31640625 117.0390625 C-264.76572214 110.24185619 -258.20840935 103.76990783 -250 99 C-249.39462402 98.64744141 -248.78924805 98.29488281 -248.16552734 97.93164062 C-222.26490721 83.04579685 -190.8378445 76.70306454 -161.35546875 84.03125 C-160.24816406 84.3509375 -159.14085937 84.670625 -158 85 C-157.37303223 85.16628906 -156.74606445 85.33257812 -156.10009766 85.50390625 C-138.58424696 90.15298926 -122.89009362 98.10990638 -110 111 C-109.67 103.74 -109.34 96.48 -109 89 C-73.03 89 -37.06 89 0 89 C0 59.63 0 30.26 0 0 Z " fill="#000000" transform="translate(619,339)"/>
<path d="M0 0 C1.134375 0.37898438 2.26875 0.75796875 3.4375 1.1484375 C11.55810771 4.00214162 18.0758131 7.97216699 25 13 C23.75859277 16.93559777 22.33036273 20.58503577 20.47802734 24.27099609 C19.72747574 25.77187271 19.72747574 25.77187271 18.96176147 27.30307007 C18.42523956 28.36579132 17.88871765 29.42851257 17.3359375 30.5234375 C16.78386627 31.62475006 16.23179504 32.72606262 15.66299438 33.86074829 C13.90408506 37.36739897 12.13962385 40.87122209 10.375 44.375 C9.17886846 46.75610015 7.98400377 49.13783324 6.7890625 51.51953125 C3.8635826 57.34847549 0.93354311 63.17510996 -2 69 C-5.38378697 69 -6.6831144 68.27051463 -9.625 66.6875 C-24.04204095 59.31182543 -42.73704398 57.30604301 -58.61328125 61.1875 C-73.17757635 66.14555791 -85.34305695 75.6666507 -92.7578125 89.2109375 C-99.56896143 103.32679687 -101.8032605 119.76893561 -97 135 C-91.10194948 151.82613657 -81.25284369 164.18163859 -65 172 C-46.59289694 179.22472155 -26.94410195 175.99903051 -9 169 C-6.9864598 168.02755161 -4.98154759 167.03608357 -3 166 C-0.41897544 170.15210489 1.79763337 174.43412807 3.984375 178.80078125 C4.36305725 179.55481735 4.7417395 180.30885345 5.13189697 181.08573914 C5.93306025 182.68301495 6.73314733 184.28083096 7.53222656 185.87915039 C8.7280592 188.26865798 9.93022828 190.65490048 11.1328125 193.04101562 C16.07865571 202.89781276 20.69323504 212.84771702 25 223 C17.26372988 229.21005286 9.52022532 232.33948052 0.18603516 235.30029297 C-1.89297019 235.96574186 -3.95627116 236.66636592 -6.01953125 237.37890625 C-22.06014117 242.82647183 -37.34733856 244.28304402 -54.1875 244.375 C-55.33732361 244.38691879 -55.33732361 244.38691879 -56.51037598 244.39907837 C-67.08415635 244.48315651 -76.70136159 243.43591945 -87 241 C-88.05904541 240.77723389 -89.11809082 240.55446777 -90.20922852 240.32495117 C-121.85844041 233.65525148 -151.17460216 209.9669341 -168.765625 183.51953125 C-185.85141535 157.05141342 -192.58573279 124.38553993 -186 93.375 C-181.06179749 71.91011175 -171.28431752 52.88764584 -156 37 C-154.84766574 35.65136101 -153.70151891 34.29740342 -152.5625 32.9375 C-114.87401149 -10.01185304 -51.92985526 -18.89412145 0 0 Z " fill="#010101" transform="translate(315,430)"/>
<path d="M0 0 C0.81210937 0.41636719 1.62421875 0.83273437 2.4609375 1.26171875 C3.33492188 1.70902344 4.20890625 2.15632813 5.109375 2.6171875 C19.03630837 10.41710664 28.83178122 22.44626064 33.2109375 37.91015625 C36.92690062 55.50937048 33.74654053 71.97311845 24.4609375 87.26171875 C16.48422484 98.52570947 4.99765468 105.73792402 -8.5390625 108.26171875 C-9.89837891 108.53242187 -9.89837891 108.53242187 -11.28515625 108.80859375 C-22.95550622 110.43375653 -34.73502273 110.27228792 -45.5390625 105.26171875 C-46.46976562 104.84921875 -47.40046875 104.43671875 -48.359375 104.01171875 C-61.32241805 97.65657787 -70.05655281 86.90173732 -74.72924805 73.41308594 C-79.86944042 57.26500208 -79.04606885 40.84760844 -71.4140625 25.63671875 C-63.22903621 11.32148449 -52.14053766 3.16353358 -36.5390625 -1.73828125 C-26.16249525 -5.197137 -9.98355648 -4.17201407 0 0 Z " fill="#FDFDFD" transform="translate(477.5390625,494.73828125)"/>
<path d="M0 0 C10.68875216 7.26835147 17.99868104 16.33824074 22.95703125 28.23828125 C23.3334375 29.11484375 23.70984375 29.99140625 24.09765625 30.89453125 C25.34929171 35.76453102 25.28564453 40.4802731 25.26953125 45.48828125 C25.28564453 46.47441406 25.30175781 47.46054687 25.31835938 48.4765625 C25.32745727 62.28716218 20.17911398 74.07243749 10.64453125 84.11328125 C6.14038398 88.32120298 1.45287426 91.47036031 -4.04296875 94.23828125 C-4.93886719 94.72554687 -5.83476563 95.2128125 -6.7578125 95.71484375 C-18.77738517 101.36925507 -34.7920024 101.6345541 -47.29296875 97.23828125 C-61.1615813 90.72368298 -72.10565918 80.42582822 -78.04296875 66.23828125 C-78.39488281 65.46097656 -78.74679687 64.68367187 -79.109375 63.8828125 C-83.03698023 52.75733659 -82.70445809 36.83784746 -78.3671875 25.94140625 C-72.04491793 13.03577044 -63.63462508 4.14620382 -51.04296875 -2.76171875 C-50.25921875 -3.19871094 -49.47546875 -3.63570312 -48.66796875 -4.0859375 C-33.84800837 -10.85466941 -13.67847969 -7.91911982 0 0 Z " fill="#010101" transform="translate(910.04296875,574.76171875)"/>
<path d="M0 0 C0.495 0.99 0.495 0.99 1 2 C-0.19949746 4.39010975 -1.44397108 6.64735601 -2.8125 8.9375 C-3.18181641 9.57107422 -3.55113281 10.20464844 -3.93164062 10.85742188 C-5.55228048 13.62443894 -7.22094647 16.33141971 -9 19 C-9.66 19 -10.32 19 -11 19 C-11.2578125 19.721875 -11.515625 20.44375 -11.78125 21.1875 C-13.06342067 24.1463554 -14.57707649 26.41508642 -16.5 29 C-17.21285156 29.9590625 -17.92570313 30.918125 -18.66015625 31.90625 C-19.43230469 32.9271875 -20.20445312 33.948125 -21 35 C-21.59723877 35.79083984 -21.59723877 35.79083984 -22.20654297 36.59765625 C-27.33089396 43.3675907 -32.58351192 50.01620631 -37.9921875 56.5625 C-39.40923447 58.28280605 -40.78608993 60.0366021 -42.1328125 61.8125 C-42.74898437 62.534375 -43.36515625 63.25625 -44 64 C-44.66 64 -45.32 64 -46 64 C-46.2475 64.78375 -46.495 65.5675 -46.75 66.375 C-48.22139994 69.46493987 -49.07318455 69.53659227 -52 71 C-52.28963623 71.75796875 -52.57927246 72.5159375 -52.87768555 73.296875 C-54.14736785 76.3549395 -55.59876724 77.94378596 -57.95703125 80.25 C-59.13168945 81.41015625 -59.13168945 81.41015625 -60.33007812 82.59375 C-61.14927734 83.3878125 -61.96847656 84.181875 -62.8125 85 C-63.62009766 85.7940625 -64.42769531 86.588125 -65.25976562 87.40625 C-66.82714566 88.94667264 -68.3972995 90.48427893 -69.97045898 92.01879883 C-72.33398589 94.32603097 -74.66983568 96.65908107 -77 99 C-78.54791438 100.54843975 -80.09612614 102.09658223 -81.64453125 103.64453125 C-82.48564453 104.48564453 -83.32675781 105.32675781 -84.19335938 106.19335938 C-90.09667969 112.09667969 -90.09667969 112.09667969 -96 118 C-96.99 117.67 -97.98 117.34 -99 117 C-88.53527593 106.3621463 -88.53527593 106.3621463 -84.25 102.75 C-75.46384427 95.23720017 -67.11738919 86.7718381 -59.66015625 77.94140625 C-57.54297538 75.46555003 -55.33218171 73.08338732 -53.125 70.6875 C-48.20422698 65.2850248 -43.5729951 59.69762419 -39 54 C-38.07610551 52.86801214 -37.1515971 51.73652513 -36.2265625 50.60546875 C-24.61732989 36.34269725 -14.08063082 21.37156965 -4 6 C-2.67013108 3.99766274 -1.33544578 1.99862634 0 0 Z " fill="#131313" transform="translate(997,827)"/>
<path d="M0 0 C0 0.66 0 1.32 0 2 C-1.48886719 2.74443359 -1.48886719 2.74443359 -3.0078125 3.50390625 C-3.6582251 3.82915283 -4.3086377 4.15439941 -4.97875977 4.48950195 C-6.42182649 5.21095324 -7.86502533 5.93214029 -9.30834961 6.65307617 C-12.85317848 8.42413035 -16.39637072 10.1981721 -19.93359375 11.984375 C-20.54638184 12.2930249 -21.15916992 12.6016748 -21.79052734 12.91967773 C-23.46649395 13.7641266 -25.14148034 14.61052008 -26.81640625 15.45703125 C-33.02007712 18.46371836 -39.42483047 21.02478833 -45.79296875 23.66015625 C-47.9687664 24.56916794 -50.13791854 25.49422024 -52.30078125 26.43359375 C-53.88439453 27.11615234 -53.88439453 27.11615234 -55.5 27.8125 C-56.93859375 28.44091797 -56.93859375 28.44091797 -58.40625 29.08203125 C-61 30 -61 30 -65 30 C-65 30.66 -65 31.32 -65 32 C-65.85722656 32.25394531 -66.71445312 32.50789063 -67.59765625 32.76953125 C-68.74105469 33.11371094 -69.88445312 33.45789062 -71.0625 33.8125 C-72.18785156 34.14894531 -73.31320312 34.48539063 -74.47265625 34.83203125 C-78.08732564 36.02891513 -81.50294085 37.49738765 -85 39 C-93.97772626 42.11971098 -103.0471718 44.62438229 -112.32763672 46.65600586 C-115.14849012 47.28123956 -117.83458708 47.93357838 -120.51953125 49.01171875 C-123.78585691 50.3131052 -127.0532096 50.9425355 -130.5 51.625 C-131.7890625 51.88539062 -133.078125 52.14578125 -134.40625 52.4140625 C-137.37238304 52.89767115 -140.01000076 53.12649997 -143 53 C-139.96185846 50.97457231 -138.09887976 50.42464082 -134.58203125 49.66796875 C-133.50147461 49.42981445 -132.42091797 49.19166016 -131.30761719 48.94628906 C-130.15422852 48.69588867 -129.00083984 48.44548828 -127.8125 48.1875 C-118.53828022 46.1022469 -109.48508254 43.87501911 -100.47558594 40.828125 C-97.36883199 39.78886372 -94.25065906 38.78673666 -91.1328125 37.78125 C-62.1463286 28.38695276 -34.34304726 16.57639728 -7.25292969 2.58984375 C-2.2017644 0 -2.2017644 0 0 0 Z " fill="#191919" transform="translate(798,1015)"/>
<path d="M0 0 C-1.56530148 4.20367127 -4.69081493 6.56058187 -8.0625 9.3125 C-8.6503125 9.80032959 -9.238125 10.28815918 -9.84375 10.79077148 C-14.48693712 14.62686194 -19.21137838 18.34739406 -24 22 C-25.01964844 22.79277344 -26.03929687 23.58554687 -27.08984375 24.40234375 C-32.86980446 28.8933281 -38.69327005 33.26104737 -44.7265625 37.41015625 C-46.92676365 38.94878489 -49.05863297 40.55210598 -51.1875 42.1875 C-54.64574369 44.81075527 -58.20682402 46.89268001 -62 49 C-63.0725 49.763125 -64.145 50.52625 -65.25 51.3125 C-66.1575 51.869375 -67.065 52.42625 -68 53 C-68.99 52.67 -69.98 52.34 -71 52 C-70.31562866 51.54898926 -70.31562866 51.54898926 -69.61743164 51.08886719 C-53.83632992 40.67180465 -38.27553564 30.07747732 -23.52978516 18.22558594 C-22.11444012 17.09168359 -20.68851698 15.97101903 -19.26171875 14.8515625 C-13.96396277 10.68256635 -8.95194984 6.29676315 -4.03125 1.6875 C-2 0 -2 0 0 0 Z " fill="#111111" transform="translate(898,945)"/>
<path d="M0 0 C1.19278026 3.57834077 0.74967039 4.25913625 -0.6875 7.625 C-1.25984375 8.97271484 -1.25984375 8.97271484 -1.84375 10.34765625 C-2.41609375 11.66056641 -2.41609375 11.66056641 -3 13 C-3.2784375 13.67933594 -3.556875 14.35867188 -3.84375 15.05859375 C-6.33856627 20.98378239 -9.39827972 26.60626161 -12.43139648 32.26757812 C-15.1335023 37.32138372 -17.72053702 42.42041196 -20.25 47.5625 C-22.60717989 52.34190527 -25.06551682 56.96403225 -27.9921875 61.421875 C-29.14877412 63.17237729 -29.14877412 63.17237729 -30.4375 65.875 C-31.88822719 68.77645439 -33.43226233 71.57130624 -35.0625 74.375 C-35.56910156 75.24898437 -36.07570313 76.12296875 -36.59765625 77.0234375 C-37.29181641 78.00183594 -37.29181641 78.00183594 -38 79 C-38.66 79 -39.32 79 -40 79 C-38.59107819 75.21578053 -36.84551098 71.84804891 -34.796875 68.37109375 C-34.15298828 67.26749512 -33.50910156 66.16389648 -32.84570312 65.02685547 C-32.50418213 64.44272888 -32.16266113 63.85860229 -31.81079102 63.2567749 C-19.89820596 42.8264859 -9.27070104 21.76599375 0 0 Z " fill="#121212" transform="translate(1038,748)"/>
<path d="M0 0 C0 0.66 0 1.32 0 2 C-0.99257813 2.49628906 -1.98515625 2.99257813 -3.0078125 3.50390625 C-3.6582251 3.82915283 -4.3086377 4.15439941 -4.97875977 4.48950195 C-6.42182649 5.21095324 -7.86502533 5.93214029 -9.30834961 6.65307617 C-12.85317848 8.42413035 -16.39637072 10.1981721 -19.93359375 11.984375 C-20.54638184 12.2930249 -21.15916992 12.6016748 -21.79052734 12.91967773 C-23.46649395 13.7641266 -25.14148034 14.61052008 -26.81640625 15.45703125 C-33.02106279 18.46419608 -39.42653315 21.02718832 -45.796875 23.66015625 C-47.96123272 24.56549125 -50.11743082 25.49054679 -52.265625 26.43359375 C-53.83570313 27.11615234 -53.83570313 27.11615234 -55.4375 27.8125 C-56.85869141 28.44091797 -56.85869141 28.44091797 -58.30859375 29.08203125 C-61.0584389 30.01993199 -63.11876371 30.18301864 -66 30 C-63.46267879 28.30845253 -61.41670681 27.28063506 -58.6171875 26.1796875 C-39.9082476 18.67478321 -21.54782164 10.18028185 -3.70214844 0.79101562 C-2 0 -2 0 0 0 Z " fill="#141414" transform="translate(798,1015)"/>
<path d="M0 0 C0.66 0.33 1.32 0.66 2 1 C-0.16527445 3.022342 -2.33218072 5.04288878 -4.5 7.0625 C-5.10070312 7.62388672 -5.70140625 8.18527344 -6.3203125 8.76367188 C-9.4566872 11.6831696 -12.62226863 14.54970355 -15.87109375 17.34375 C-20.6447954 21.49859559 -25.09988446 25.9535152 -29.5625 30.4375 C-30.37396484 31.24509766 -31.18542969 32.05269531 -32.02148438 32.88476562 C-36.88996977 37.76110975 -41.51317325 42.77284328 -46 48 C-47.64144767 49.83726101 -49.28655874 51.67126507 -50.9375 53.5 C-51.70964844 54.3559375 -52.48179687 55.211875 -53.27734375 56.09375 C-53.84582031 56.7228125 -54.41429687 57.351875 -55 58 C-55 54.38404019 -54.37976067 53.94524889 -52.0078125 51.35546875 C-51.0472998 50.29851807 -51.0472998 50.29851807 -50.06738281 49.22021484 C-49.38514648 48.48754395 -48.70291016 47.75487305 -48 47 C-47.3409668 46.28666504 -46.68193359 45.57333008 -46.00292969 44.83837891 C-43.97088351 42.65286834 -41.92523742 40.48094582 -39.875 38.3125 C-38.84052734 37.21325195 -38.84052734 37.21325195 -37.78515625 36.09179688 C-34.24388443 32.33723621 -30.66793147 28.63167514 -27 25 C-26.05506396 24.04518599 -25.11110289 23.08940641 -24.16796875 22.1328125 C-18.62303447 16.52793797 -13.0369937 11.08038228 -7 6 C-5.66609556 4.85483156 -4.33273732 3.70902651 -3 2.5625 C-2.01 1.716875 -1.02 0.87125 0 0 Z " fill="#060606" transform="translate(186,130)"/>
<path d="M0 0 C5.92670245 0.46822182 11.80200862 1.09386862 17.6875 1.9375 C28.41165921 3.41707798 39.20990644 4.16617739 50 5 C50 5.33 50 5.66 50 6 C16.26034749 6.72722806 16.26034749 6.72722806 0 1 C0 0.67 0 0.34 0 0 Z " fill="#111111" transform="translate(460,1074)"/>
<path d="M0 0 C4.12451824 3.21913619 7.51303019 6.61642915 10.91015625 10.5859375 C19.79671167 20.85115479 29.34026717 30.46887308 39 40 C35.34341209 40 34.51271634 38.87132978 32.00093079 36.39212036 C31.49144394 35.87342377 30.98195709 35.35472717 30.45703125 34.8203125 C29.92857101 34.29235077 29.40011078 33.76438904 28.8556366 33.22042847 C27.74007544 32.10252627 26.62820757 30.98092819 25.51977539 29.85595703 C23.8174732 28.13004219 22.10222577 26.41784888 20.38476562 24.70703125 C19.30389239 23.62058212 18.22378751 22.53336792 17.14453125 21.4453125 C16.37119194 20.6733403 16.37119194 20.6733403 15.58222961 19.88577271 C12 16.23101808 12 16.23101808 12 14 C11.34 14 10.68 14 10 14 C10 13.34 10 12.68 10 12 C9.34 12 8.68 12 8 12 C6.0546875 9.8828125 6.0546875 9.8828125 3.875 7.125 C3.15054688 6.22007812 2.42609375 5.31515625 1.6796875 4.3828125 C0 2 0 2 0 0 Z " fill="#101010" transform="translate(130,892)"/>
<path d="M0 0 C2.70392692 2.5911264 4.9600268 5.17978899 7.06640625 8.2734375 C7.62956543 9.09207275 8.19272461 9.91070801 8.77294922 10.75415039 C9.65877686 12.05147095 9.65877686 12.05147095 10.5625 13.375 C15.39438771 20.39098248 20.34681681 27.22426043 25.79907227 33.77294922 C29 37.68984998 29 37.68984998 29 41 C17.7816791 30.2939312 7.73505265 15.4074246 0 2 C0 1.34 0 0.68 0 0 Z " fill="#111111" transform="translate(89,838)"/>
<path d="M0 0 C0.66 0.33 1.32 0.66 2 1 C-1.28242417 4.94916658 -4.56509924 8.74889936 -8.5 12.0625 C-15.41783749 17.90971979 -21.64075811 24.56002555 -28 31 C-28.99 30.67 -29.98 30.34 -31 30 C-20.54571955 19.3727627 -20.54571955 19.3727627 -16.0625 15.5625 C-10.38233574 10.72428076 -5.2325417 5.31102982 0 0 Z " fill="#0D0D0D" transform="translate(929,914)"/>
<path d="M0 0 C0.66 0.33 1.32 0.66 2 1 C1.41734375 1.7528125 0.8346875 2.505625 0.234375 3.28125 C-6.59563898 12.1241574 -13.31255354 21.04893335 -20 30 C-20.33 29.34 -20.66 28.68 -21 28 C-18.1731261 23.6615338 -15.17733776 19.52471175 -12 15.4375 C-11.57460937 14.88642578 -11.14921875 14.33535156 -10.7109375 13.76757812 C-8.17258055 10.48562274 -5.59456317 7.23756361 -3 4 C-1.99426222 2.67098936 -0.99204592 1.33926199 0 0 Z " fill="#161616" transform="translate(122,195)"/>
<path d="M0 0 C2.9275057 1.33243148 5.08321295 2.81874519 7.4375 5 C11.59083309 8.73096023 15.96674499 12.10218043 20.43139648 15.44726562 C23.5192648 17.78054983 26.33789016 20.18927723 29 23 C24.63447576 22.12300526 21.82483874 19.75746934 18.4375 17 C17.52073486 16.26438843 17.52073486 16.26438843 16.58544922 15.51391602 C15.33145643 14.50586488 14.07982845 13.494865 12.83056641 12.48095703 C11.10882466 11.08804086 9.37535371 9.7115775 7.63671875 8.33984375 C6.64285156 7.54707031 5.64898437 6.75429688 4.625 5.9375 C3.73039063 5.22464844 2.83578125 4.51179687 1.9140625 3.77734375 C1.28242188 3.19082031 0.65078125 2.60429688 0 2 C0 1.34 0 0.68 0 0 Z " fill="#141414" transform="translate(189,951)"/>
<path d="M0 0 C-1.25754071 3.77262212 -2.22274694 3.92224625 -5.6875 5.6875 C-9.08804878 7.45239819 -12.44829397 9.24082509 -15.73828125 11.203125 C-16.36323486 11.57348877 -16.98818848 11.94385254 -17.63208008 12.32543945 C-18.864117 13.05892895 -20.09195673 13.79952115 -21.31518555 14.54760742 C-22.83386026 15.44230538 -24.41438466 16.23014202 -26 17 C-26.99 16.67 -27.98 16.34 -29 16 C-28.2886792 15.58637207 -27.5773584 15.17274414 -26.84448242 14.74658203 C-23.6249194 12.87369729 -20.40620088 10.99936598 -17.1875 9.125 C-16.06794922 8.47402344 -14.94839844 7.82304688 -13.79492188 7.15234375 C-12.72177734 6.52714844 -11.64863281 5.90195312 -10.54296875 5.2578125 C-9.55321045 4.6817627 -8.56345215 4.10571289 -7.54370117 3.51220703 C-1.63577656 0 -1.63577656 0 0 0 Z " fill="#141414" transform="translate(827,998)"/>
<path d="M0 0 C0.66 0.33 1.32 0.66 2 1 C1.33097656 1.49886719 0.66195312 1.99773437 -0.02734375 2.51171875 C-9.07057627 9.27290065 -18.03957211 16.12959352 -27 23 C-27 22.01 -27 21.02 -27 20 C-23.66666667 17 -23.66666667 17 -21 17 C-21 16.34 -21 15.68 -21 15 C-19.60323878 14.02438345 -18.19891086 13.05793389 -16.75976562 12.14599609 C-13.79007133 10.21206921 -11.03887501 7.99551595 -8.25 5.8125 C-2.26339286 1.13169643 -2.26339286 1.13169643 0 0 Z " fill="#141414" transform="translate(223,101)"/>
<path d="M0 0 C5.59490635 3.06122366 10.7557463 6.53796393 15.9375 10.25 C16.71673828 10.80429687 17.49597656 11.35859375 18.29882812 11.9296875 C20.20129304 13.28358891 22.10160782 14.64039691 24 16 C23.01 16.33 22.02 16.66 21 17 C18.58984375 15.6015625 18.58984375 15.6015625 15.9375 13.625 C12.59568792 11.10492378 12.59568792 11.10492378 9 9 C9 8.34 9 7.68 9 7 C8.2575 6.731875 7.515 6.46375 6.75 6.1875 C4.10938051 5.04723249 2.14447156 3.90619694 0 2 C0 1.34 0 0.68 0 0 Z " fill="#111111" transform="translate(218,974)"/>
<path d="M0 0 C0.66 0.33 1.32 0.66 2 1 C1.41992188 1.56847656 0.83984375 2.13695312 0.2421875 2.72265625 C-4.40616903 7.31731889 -8.82633451 11.970198 -13 17 C-13 13.34196352 -12.27649012 12.8229015 -9.875 10.1875 C-9.24207031 9.49011719 -8.60914063 8.79273438 -7.95703125 8.07421875 C-5.35985436 5.32152229 -2.7089358 2.6428642 0 0 Z " fill="#1B1B1B" transform="translate(144,171)"/>
<path d="M0 0 C0.66 0.33 1.32 0.66 2 1 C-4.93 7.435 -4.93 7.435 -12 14 C-12 11 -12 11 -9.8828125 8.5546875 C-8.97273437 7.67039063 -8.06265625 6.78609375 -7.125 5.875 C-6.22007812 4.98554688 -5.31515625 4.09609375 -4.3828125 3.1796875 C-2 1 -2 1 0 0 Z " fill="#1F1F1F" transform="translate(186,130)"/>
<path d="M0 0 C5.26964527 2.63482263 8.97903554 6.79943911 13 11 C8.89253434 11 7.80245139 9.36039564 4.8125 6.625 C3.91144531 5.81289063 3.01039063 5.00078125 2.08203125 4.1640625 C0 2 0 2 0 0 Z " fill="#151515" transform="translate(169,933)"/>
<path d="M0 0 C0 0.66 0 1.32 0 2 C-1.72681437 2.50806447 -3.45657979 3.00610467 -5.1875 3.5 C-6.63189453 3.91765625 -6.63189453 3.91765625 -8.10546875 4.34375 C-10.85345876 4.96677608 -13.19598416 5.12302812 -16 5 C-13.39680887 3.26453924 -11.47732763 2.34824767 -8.5625 1.375 C-7.80066406 1.11460938 -7.03882813 0.85421875 -6.25390625 0.5859375 C-4 0 -4 0 0 0 Z " fill="#262626" transform="translate(716,1051)"/>
<path d="M0 0 C0.66 0.33 1.32 0.66 2 1 C0.54331217 3.96783129 -1.01232086 6.86415313 -2.625 9.75 C-3.29402344 10.94882812 -3.29402344 10.94882812 -3.9765625 12.171875 C-4.31429687 12.77515625 -4.65203125 13.3784375 -5 14 C-5.66 14 -6.32 14 -7 14 C-5.23570801 9.02790438 -2.6060834 4.56561939 0 0 Z " fill="#151515" transform="translate(1005,813)"/>
<path d="M0 0 C0.66 0.33 1.32 0.66 2 1 C0.74054645 2.67528263 -0.53293682 4.34002614 -1.8125 6 C-2.87404297 7.3921875 -2.87404297 7.3921875 -3.95703125 8.8125 C-4.63121094 9.534375 -5.30539062 10.25625 -6 11 C-6.99 11 -7.98 11 -9 11 C-6.03 7.37 -3.06 3.74 0 0 Z " fill="#0E0E0E" transform="translate(963,875)"/>
<path d="M0 0 C0 0.66 0 1.32 0 2 C-8.42857143 5.42857143 -8.42857143 5.42857143 -13 5 C-8.94191935 2.2946129 -4.95110601 0 0 0 Z " fill="#1E1E1E" transform="translate(745,1040)"/>
<path d="M0 0 C0.33 0.66 0.66 1.32 1 2 C0.00390625 3.9453125 0.00390625 3.9453125 -1.4375 6.125 C-1.91058594 6.84945312 -2.38367188 7.57390625 -2.87109375 8.3203125 C-3.24363281 8.87460937 -3.61617187 9.42890625 -4 10 C-4.66 9.67 -5.32 9.34 -6 9 C-4.02 6.03 -2.04 3.06 0 0 Z " fill="#141414" transform="translate(997,827)"/>
</svg>
